<?xml version="1.0" encoding="UTF-8"?>
<!DOCTYPE svg PUBLIC "-//W3C//DTD SVG 1.1//EN" "http://www.w3.org/Graphics/SVG/1.1/DTD/svg11.dtd">
<!-- Creator: CorelDRAW X8 -->
<svg xmlns="http://www.w3.org/2000/svg" xml:space="preserve" width="0.905236in" height="3.62028in" version="1.1" style="shape-rendering:geometricPrecision; text-rendering:geometricPrecision; image-rendering:optimizeQuality; fill-rule:evenodd; clip-rule:evenodd"
viewBox="0 0 112 449"
 xmlns:xlink="http://www.w3.org/1999/xlink">
 <defs>
  <style type="text/css">
   <![CDATA[
    .str0 {stroke:white;stroke-width:1.11164;stroke-opacity:0.901961}
    .str1 {stroke:white;stroke-width:1.1649}
    .str2 {stroke:white;stroke-width:1.11164}
    .fil4 {fill:none}
    .fil1 {fill:none}
    .fil6 {fill:#0864BC}
    .fil3 {fill:white}
    .fil5 {fill:#DAE3E5;fill-opacity:0.470588}
    .fil0 {fill:#29ABE2;fill-opacity:0.729412}
    .fil2 {fill:white;fill-opacity:0.901961}
   ]]>
  </style>
   <clipPath id="id0">
    <path d="M57 1c-34,0 -33,24 -33,24l0 42 66 0 0 -42c0,0 1,-24 -33,-24l0 0z"/>
   </clipPath>
 </defs>
 <g id="Layer_x0020_1">
  <metadata id="CorelCorpID_0Corel-Layer"/>
  <path class="fil0" d="M111 441c0,-4 -24,-7 -55,-7 -30,0 -55,3 -55,7 0,5 25,8 55,8 31,0 55,-3 55,-8z"/>
  <path class="fil1 str0" d="M57 1c-34,0 -33,24 -33,24l0 42 66 0 0 -42c0,0 1,-24 -33,-24"/>
  <path class="fil2 str0" d="M22 84l68 0c12,0 22,9 22,21l0 313c0,12 -10,22 -22,22l-68 0c-12,0 -21,-10 -21,-22l0 -313c0,-12 9,-21 21,-21z"/>
  <path class="fil3" d="M20 156l72 0c11,0 20,9 20,20l0 244c0,11 -9,20 -20,20l-72 0c-11,0 -19,-9 -19,-20l0 -244c0,-11 8,-20 19,-20z"/>
  <path class="fil1 str0" d="M65 42l0 -11c0,0 1,-9 -8,-9l-1 0c-9,0 -8,9 -8,9l0 11c-20,8 -19,25 -19,25 0,0 56,-1 55,0 0,0 1,-17 -19,-25z"/>
  <path class="fil4 str1" d="M58 6c0,0 -26,-3 -29,19l0 19"/>
  <line class="fil4 str1" x1="85" y1="30" x2="85" y2= "47" />
  <g style="clip-path:url(#id0)">
   <g id="_1600887051552">
    <path class="fil5" d="M11 -176c0,0 30,50 22,128 -7,77 6,102 39,102 22,0 16,18 16,18l-22 20 -77 -12 3 -155 19 -101z"/>
   </g>
  </g>
  <path class="fil4" d="M57 1c-34,0 -33,24 -33,24l0 42 66 0 0 -42c0,0 1,-24 -33,-24"/>
  <path class="fil6 str2" d="M22 66l69 0c3,0 5,2 5,5l0 8c0,3 -2,5 -5,5l-69 0c-3,0 -5,-2 -5,-5l0 -8c0,-3 2,-5 5,-5z"/>
 </g>
</svg>
