<svg xmlns="http://www.w3.org/2000/svg" viewBox="0 0 17.68 15.29"><defs><style>.cls-1{fill:#064d87;}</style></defs><title>customer</title><g id="Layer_2" data-name="Layer 2"><g id="Content"><path class="cls-1" d="M2.73,10.17a.35.35,0,0,1-.26-.11.4.4,0,0,1-.11-.31V1.86a.33.33,0,0,1,.36-.36H17.3a.34.34,0,0,1,.38.36v6.5a.4.4,0,0,1-.36.42L2.76,10.17ZM3.18,2.3v7L16.87,8V2.3Z"/><path class="cls-1" d="M2.74,2.26A.45.45,0,0,1,2.39,2L1.58.81H.42A.41.41,0,0,1,0,.41.41.41,0,0,1,.42,0H1.8a.43.43,0,0,1,.35.2L3.1,1.6a.43.43,0,0,1-.35.67Z"/><path class="cls-1" d="M16.88,13.41H3.67a1.25,1.25,0,0,1-1.3-1.34V8.83a.41.41,0,1,1,.81,0v3.22h0a.93.93,0,0,0,.09.31.44.44,0,0,0,.43.23H16.88a.41.41,0,1,1,0,.81Z"/><path class="cls-1" d="M5.54,15.29a1.38,1.38,0,0,1-1-.37,1.59,1.59,0,0,1-.42-1v-.48a.48.48,0,0,1,.95,0v.48h0a.58.58,0,0,0,.06.29.39.39,0,0,0,.41.21A.4.4,0,0,0,6,14.23a.66.66,0,0,0,.07-.3V13a.41.41,0,1,1,.81,0v.91a1.42,1.42,0,0,1-.37,1A1.24,1.24,0,0,1,5.54,15.29Z"/><path class="cls-1" d="M14.55,15.29a1.28,1.28,0,0,1-1-.37,1.47,1.47,0,0,1-.39-1v-.48a.48.48,0,0,1,.95,0v.48h0a.41.41,0,0,0,0,.29c.05.1.12.21.39.21s.32-.11.37-.21a.44.44,0,0,0,0-.3V13a.48.48,0,0,1,.95,0v.91a1.53,1.53,0,0,1-.4,1A1.33,1.33,0,0,1,14.55,15.29Z"/><path class="cls-1" d="M6.3,9.54A.27.27,0,0,1,6,9.3V1.86a.27.27,0,0,1,.54,0V9.3A.27.27,0,0,1,6.3,9.54Z"/><path class="cls-1" d="M10.09,9.07a.27.27,0,0,1-.27-.24v-7a.27.27,0,0,1,.54,0v7A.27.27,0,0,1,10.09,9.07Z"/><path class="cls-1" d="M13.75,9.07a.27.27,0,0,1-.27-.24v-7a.27.27,0,0,1,.54,0v7A.27.27,0,0,1,13.75,9.07Z"/><path class="cls-1" d="M17.3,5.83H2.73a.27.27,0,0,1,0-.54H17.3a.27.27,0,0,1,0,.54Z"/></g></g></svg>