<?xml version="1.0" encoding="UTF-8"?>
<!DOCTYPE svg PUBLIC "-//W3C//DTD SVG 1.1//EN" "http://www.w3.org/Graphics/SVG/1.1/DTD/svg11.dtd">
<!-- Creator: CorelDRAW X8 -->
<svg xmlns="http://www.w3.org/2000/svg" xml:space="preserve" width="1.36288in" height="1.4447in" version="1.1" style="shape-rendering:geometricPrecision; text-rendering:geometricPrecision; image-rendering:optimizeQuality; fill-rule:evenodd; clip-rule:evenodd"
viewBox="0 0 1030 1092"
 xmlns:xlink="http://www.w3.org/1999/xlink">
 <defs>
  <style type="text/css">
   <![CDATA[
    .str0 {stroke:#049BE0;stroke-width:3.25563;stroke-dasharray:19.756987;stroke-opacity:0.541176}
    .fil1 {fill:none}
    .fil0 {fill:none}
   ]]>
  </style>
   <clipPath id="id0">
    <path d="M0 1092l1030 0 0 -1092 -1030 0 0 1092z"/>
   </clipPath>
 </defs>
 <g id="Layer_x0020_1">
  <metadata id="CorelCorpID_0Corel-Layer"/>
  <g>
  </g>
  <g style="clip-path:url(#id0)">
   <g>
    <path class="fil0 str0" d="M1106 44c0,0 -164,1 -261,124 -87,110 -240,153 -240,153 0,0 -255,74 -241,320 10,179 -157,236 -157,236 0,0 -190,80 -152,261"/>
    <path class="fil0 str0" d="M1312 175c0,0 -164,1 -262,124 -87,111 -240,153 -240,153 0,0 -212,68 -241,320 -20,178 -157,237 -157,237 0,0 -190,79 -152,260"/>
    <path class="fil0 str0" d="M1555 272c0,0 -164,1 -262,124 -87,110 -240,152 -240,152 0,0 -212,69 -241,320 -20,179 -157,237 -157,237 0,0 -190,79 -152,260"/>
    <path class="fil0 str0" d="M1739 390c0,0 -164,1 -261,124 -88,110 -240,152 -240,152 0,0 -213,69 -242,320 -20,179 -157,237 -157,237 0,0 -189,79 -152,260"/>
   </g>
  </g>
  <polygon class="fil1" points="0,1092 1030,1092 1030,0 0,0 "/>
 </g>
</svg>
