<svg xmlns="http://www.w3.org/2000/svg" viewBox="0 0 16.83 15.32"><defs><style>.cls-1,.cls-2{fill:#b3b3b3;}.cls-2{stroke:#3e3a39;stroke-linecap:round;stroke-linejoin:round;stroke-width:2.22px;}</style></defs><title>Asset 2</title><g id="Layer_2" data-name="Layer 2"><g id="Content"><path class="cls-1" d="M16.44,7.56h-1a.4.4,0,0,1-.39-.4.4.4,0,0,1,.33-.39L8.3.93,1.43,6.82h0a.37.37,0,1,1,0,.74H.39A.4.4,0,0,1,0,7.29a.4.4,0,0,1,.11-.44L8,.09a.39.39,0,0,1,.5,0l8.14,6.75a.41.41,0,0,1,.12.45A.4.4,0,0,1,16.44,7.56Z"/><path class="cls-1" d="M2.71,5.42A.37.37,0,0,1,2.34,5V1.61a.33.33,0,0,1,.37-.33H5c.21,0,.44.12.44.33V2.94a.43.43,0,0,1-.86,0V2H3.08V5A.37.37,0,0,1,2.71,5.42Z"/><path class="cls-2" d="M1.63,6.7"/><path class="cls-1" d="M15.22,15.32H1.63a.4.4,0,0,1-.41-.38V6.28a.37.37,0,1,1,.74,0v8.18H14.9V6.28a.37.37,0,1,1,.74,0v8.66A.41.41,0,0,1,15.22,15.32Z"/><path class="cls-1" d="M10.22,15.32a.37.37,0,0,1-.37-.39V11.19a1.25,1.25,0,0,0-1.3-1.28,1.13,1.13,0,0,0-1.12.62,1.69,1.69,0,0,0-.17.66v3.75a.37.37,0,1,1-.74,0V11.19a2.24,2.24,0,0,1,.23-1,1.86,1.86,0,0,1,1.79-1,1.87,1.87,0,0,1,1.8,1,2.37,2.37,0,0,1,.25,1v3.75A.37.37,0,0,1,10.22,15.32Z"/><path class="cls-1" d="M5.91,9.93a.21.21,0,0,1-.21.21h-2a.21.21,0,0,1-.21-.21v-2a.21.21,0,0,1,.21-.21h2a.21.21,0,0,1,.21.21ZM3.82,9.66h1.6V8.05H3.82Z"/><path class="cls-1" d="M13.79,9.93a.21.21,0,0,1-.21.21H11.42a.21.21,0,0,1-.21-.21v-2a.21.21,0,0,1,.21-.21h2.16a.21.21,0,0,1,.21.21Zm-2.22-.28H13.3V8.05H11.58Z"/><path class="cls-1" d="M14.79,6.58H2.06a.37.37,0,1,1,0-.74H14.79a.37.37,0,1,1,0,.74Z"/><path class="cls-1" d="M6.86,13.47H1.46a.25.25,0,0,1,0-.49h5.4a.25.25,0,0,1,0,.49Z"/><path class="cls-1" d="M15.22,13.47h-5a.25.25,0,0,1,0-.49h5a.25.25,0,0,1,0,.49Z"/></g></g></svg>