<?xml version="1.0" encoding="UTF-8"?>
<!DOCTYPE svg PUBLIC "-//W3C//DTD SVG 1.1//EN" "http://www.w3.org/Graphics/SVG/1.1/DTD/svg11.dtd">
<!-- Creator: CorelDRAW X8 -->
<svg xmlns="http://www.w3.org/2000/svg" xml:space="preserve" width="4.29276in" height="8.95829in" version="1.1" style="shape-rendering:geometricPrecision; text-rendering:geometricPrecision; image-rendering:optimizeQuality; fill-rule:evenodd; clip-rule:evenodd"
viewBox="0 0 3900 8138"
 xmlns:xlink="http://www.w3.org/1999/xlink">
 <defs>
  <style type="text/css">
   <![CDATA[
    .fil0 {fill:white}
   ]]>
  </style>
 </defs>
 <g id="Layer_x0020_1">
  <metadata id="CorelCorpID_0Corel-Layer"/>
  <g id="_2414383853536">
   <path class="fil0" d="M1950 280l0 7224c0,350 -156,634 -347,634l-1251 0c-191,0 -347,-284 -347,-634l0 -7224 1945 0z"/>
   <path class="fil0" d="M0 85c0,0 453,-194 962,5 505,197 980,-2 988,-5l0 0c0,0 453,-194 962,5 509,198 988,-5 988,-5l0 249 -1933 0 -17 0 -1945 0 -5 -249z"/>
   <path class="fil0" d="M3900 280l0 7224c0,350 -175,634 -391,634l-1405 0c-215,0 -390,-284 -390,-634l0 -7224 2186 0z"/>
  </g>
 </g>
</svg>
