<svg xmlns="http://www.w3.org/2000/svg" viewBox="0 0 16.39 16.25"><defs><style>.cls-1{fill:#064d87;}</style></defs><title>processing</title><g id="Layer_2" data-name="Layer 2"><g id="Content"><path class="cls-1" d="M9.53,16.25H6.81a.43.43,0,0,1-.43-.37l-.25-1.77a6.3,6.3,0,0,1-.75-.31L3.94,14.88a.43.43,0,0,1-.56,0L1.46,12.92a.43.43,0,0,1,0-.56L2.5,10.92a6.31,6.31,0,0,1-.31-.75L.39,9.92A.45.45,0,0,1,0,9.49V6.78a.45.45,0,0,1,.39-.43l1.79-.25a6.35,6.35,0,0,1,.31-.75L1.42,3.91a.43.43,0,0,1,0-.56L3.38,1.43a.43.43,0,0,1,.56,0L5.38,2.46a6.28,6.28,0,0,1,.75-.31L6.38.38A.44.44,0,0,1,6.81,0H9.53A.44.44,0,0,1,10,.38l.25,1.78a6.3,6.3,0,0,1,.75.31l1.44-1.08a.43.43,0,0,1,.56,0l1.92,1.92a.43.43,0,0,1,0,.56L13.83,5.35a6.31,6.31,0,0,1,.31.75L16,6.35a.48.48,0,0,1,.42.43V9.49a.48.48,0,0,1-.42.43l-1.8.25a6.29,6.29,0,0,1-.32.75l1.07,1.44a.43.43,0,0,1,0,.56L13,14.84a.43.43,0,0,1-.56,0L11,13.8a6.3,6.3,0,0,1-.75.31L10,15.88A.43.43,0,0,1,9.53,16.25Zm-2.34-.83h2l.24-1.69a.44.44,0,0,1,.31-.36,5.45,5.45,0,0,0,1.09-.45.43.43,0,0,1,.47,0l1.36,1L14,12.58l-1-1.36a.43.43,0,0,1,0-.47,5.42,5.42,0,0,0,.45-1.09.43.43,0,0,1,.35-.31l1.67-.24v-2l-1.67-.24a.43.43,0,0,1-.35-.31,5.43,5.43,0,0,0-.45-1.09A.43.43,0,0,1,13,5l1-1.36L12.61,2.3l-1.36,1a.43.43,0,0,1-.47,0A5.43,5.43,0,0,0,9.7,2.9a.46.46,0,0,1-.31-.38L9.15.83h-2l-.24,1.7a.45.45,0,0,1-.31.36,5.45,5.45,0,0,0-1.09.46.43.43,0,0,1-.47,0l-1.36-1L2.33,3.69,3.35,5a.43.43,0,0,1,0,.47A5.45,5.45,0,0,0,2.93,6.6a.48.48,0,0,1-.39.31L.83,7.15v2l1.71.24a.46.46,0,0,1,.37.31,5.49,5.49,0,0,0,.46,1.09.43.43,0,0,1,0,.47l-1,1.36L3.72,14l1.36-1a.43.43,0,0,1,.47,0,5.43,5.43,0,0,0,1.09.45.45.45,0,0,1,.31.37Z"/><path class="cls-1" d="M8.17,12.19a4.05,4.05,0,1,1,4.05-4.05A4.06,4.06,0,0,1,8.17,12.19Zm0-7.25a3.19,3.19,0,1,0,3.19,3.19A3.19,3.19,0,0,0,8.17,4.94Z"/><path class="cls-1" d="M8.17,9.93A1.79,1.79,0,1,1,10,8.13,1.79,1.79,0,0,1,8.17,9.93Zm0-3.11A1.31,1.31,0,1,0,9.48,8.13,1.31,1.31,0,0,0,8.17,6.82Z"/><circle class="cls-1" cx="8.17" cy="8.13" r="0.52"/></g></g></svg>