<svg xmlns="http://www.w3.org/2000/svg" viewBox="0 0 13.49 19.42"><defs><style>.cls-1{fill:#b3b3b3;}</style></defs><title>shipping</title><g id="Layer_2" data-name="Layer 2"><g id="Content"><path class="cls-1" d="M9.93,16.66H3.6a.4.4,0,0,1-.41-.29,23.93,23.93,0,0,1-1-8,12.39,12.39,0,0,1,1.31-5A7.83,7.83,0,0,1,6.53.07.42.42,0,0,1,6.81,0,.43.43,0,0,1,7,.07a7.84,7.84,0,0,1,3.08,3.34,12.41,12.41,0,0,1,1.31,5,23.87,23.87,0,0,1-1,7.94A.4.4,0,0,1,9.93,16.66Zm-6-.81H9.61c1.71-6.2.81-9.93-.25-12A7.37,7.37,0,0,0,6.77.91a7.37,7.37,0,0,0-2.6,2.94C3.11,5.92,2.21,9.65,3.92,15.85Z"/><path class="cls-1" d="M10.43,17.72a.42.42,0,0,1-.42.42H3.57a.42.42,0,0,1-.42-.42V16.27a.42.42,0,0,1,.42-.42H10a.42.42,0,0,1,.42.42ZM4,17.2H9.62v-.54H4Z"/><path class="cls-1" d="M6.86,19.42A.47.47,0,0,1,6.39,19V12.2a.47.47,0,0,1,.94,0V19A.47.47,0,0,1,6.86,19.42Z"/><path class="cls-1" d="M11.9,18.51a.42.42,0,0,1-.3-.12L9.79,16.58a.42.42,0,0,1,.6-.6l1.45,1.45a5,5,0,0,0,.77-3.2,3.87,3.87,0,0,0-1.85-2.58.42.42,0,1,1,.47-.7,4.68,4.68,0,0,1,2.21,3.15,6.13,6.13,0,0,1-1.21,4.26.42.42,0,0,1-.31.16Z"/><path class="cls-1" d="M1.6,18.51h0a.43.43,0,0,1-.32-.16A6.13,6.13,0,0,1,.06,14.09a4.68,4.68,0,0,1,2.21-3.15.42.42,0,0,1,.47.7A3.87,3.87,0,0,0,.89,14.22a5,5,0,0,0,.77,3.2L3.11,16a.42.42,0,0,1,.6.6L1.9,18.39A.42.42,0,0,1,1.6,18.51Z"/><path class="cls-1" d="M10.86,9.65H2.7a.2.2,0,1,1,0-.4h8.16a.2.2,0,1,1,0,.4Z"/><path class="cls-1" d="M6.76,7.64A1.78,1.78,0,1,1,8.54,5.86,1.78,1.78,0,0,1,6.76,7.64Zm0-2.72a.94.94,0,1,0,.94.94A.94.94,0,0,0,6.76,4.92Z"/><path class="cls-1" d="M7.86,1.7H5.7a.4.4,0,1,1,0-.81H7.86a.4.4,0,1,1,0,.81Z"/></g></g></svg>