<?xml version="1.0" encoding="UTF-8"?>
<!DOCTYPE svg PUBLIC "-//W3C//DTD SVG 1.1//EN" "http://www.w3.org/Graphics/SVG/1.1/DTD/svg11.dtd">
<!-- Creator: CorelDRAW X8 -->
<svg xmlns="http://www.w3.org/2000/svg" xml:space="preserve" width="0.398449in" height="0.569866in" version="1.1" style="shape-rendering:geometricPrecision; text-rendering:geometricPrecision; image-rendering:optimizeQuality; fill-rule:evenodd; clip-rule:evenodd"
viewBox="0 0 83 119"
 xmlns:xlink="http://www.w3.org/1999/xlink">
 <defs>
  <style type="text/css">
   <![CDATA[
    .str1 {stroke:white;stroke-width:1.79493;stroke-opacity:0.690196}
    .str0 {stroke:white;stroke-width:1.79493}
    .str2 {stroke:white;stroke-width:1.79493;stroke-linecap:round}
    .fil0 {fill:none}
    .fil1 {fill:none}
   ]]>
  </style>
 </defs>
 <g id="Layer_x0020_1">
  <metadata id="CorelCorpID_0Corel-Layer"/>
  <path class="fil0 str0" d="M21 45l42 0c2,0 3,2 3,4l0 56c0,2 -1,4 -3,4l-42 0c-2,0 -4,-2 -4,-4l0 -56c0,-2 2,-4 4,-4z"/>
  <path class="fil1 str1" d="M41 1c-18,0 -17,13 -17,13l0 22 34 0 0 -22c0,0 1,-13 -17,-13"/>
  <path class="fil0 str0" d="M45 24l0 -6c0,0 1,-4 -4,-4l0 0c-5,0 -4,4 -4,4l0 6c-10,4 -9,12 -9,12 0,0 27,-1 26,0 0,0 1,-8 -9,-12z"/>
  <path class="fil0 str0" d="M42 5c0,0 -13,-2 -14,10l0 10"/>
  <line class="fil0 str0" x1="55" y1="15" x2="55" y2= "24" />
  <path class="fil0 str0" d="M41 1c-18,0 -17,13 -17,13l0 22 34 0 0 -22c0,0 1,-13 -17,-13"/>
  <path class="fil0 str0" d="M23 36l36 0c2,0 3,1 3,2l0 5c0,1 -1,2 -3,2l-36 0c-2,0 -3,-1 -3,-2l0 -5c0,-1 1,-2 3,-2z"/>
  <path class="fil0 str0" d="M17 83c4,-2 8,-3 12,-3 4,0 8,1 12,3 13,5 25,0 25,0"/>
  <line class="fil0 str2" x1="4" y1="110" x2="79" y2= "110" />
  <g id="_2365162665216">
   <line class="fil0 str2" x1="25" y1="118" x2="65" y2= "118" />
   <line class="fil0 str2" x1="1" y1="118" x2="21" y2= "118" />
   <line class="fil0 str2" x1="70" y1="118" x2="82" y2= "118" />
  </g>
 </g>
</svg>
